<svg width="375" height="382" viewBox="0 0 375 382" fill="none" xmlns="http://www.w3.org/2000/svg">
<rect width="375" height="381.25" fill="white"/>
<path d="M185.98 40C272.247 40 289 104.098 289 161.413C289 195.918 268.183 216.51 242.662 228.294C239.396 249.399 221.15 265.556 199.13 265.556H175.87C152.621 265.556 133.58 247.547 131.933 224.718C106.935 215.952 86.0001 201.804 86 169.805C86 112.49 99.7133 40 185.98 40Z" fill="#2A91FF" fill-opacity="0.18"/>
<path d="M141.684 289.873C141.684 283.45 146.891 278.243 153.314 278.243H222.391C228.814 278.243 234.021 283.45 234.021 289.873C234.021 296.297 228.814 301.504 222.391 301.504H153.314C146.891 301.504 141.684 296.297 141.684 289.873Z" fill="#2A91FF" fill-opacity="0.18"/>
<path d="M152.257 325.821C152.257 319.398 157.464 314.191 163.887 314.191H211.113C217.536 314.191 222.743 319.398 222.743 325.821C222.743 332.244 217.536 337.451 211.113 337.451H163.887C157.464 337.451 152.257 332.244 152.257 325.821Z" fill="#2A91FF" fill-opacity="0.18"/>
</svg>
