<svg width="375" height="382" viewBox="0 0 375 382" fill="none" xmlns="http://www.w3.org/2000/svg">
<rect width="375" height="381.25" fill="white"/>
<path d="M204.169 85C213.367 85 220.979 91.7858 222.274 100.624C227.76 92.4896 237.872 88.1507 248.003 90.4893L265.975 94.6387C273.579 96.3944 279.525 101.528 282.595 108.089C294.629 103.806 308.574 107.157 317.267 117.517C324.998 126.731 326.546 139.074 322.356 149.507C331.311 153.772 337.5 162.905 337.5 173.484V180.562C337.5 191.447 330.948 200.799 321.573 204.896V205.448C324.291 207.673 326.66 210.416 328.52 213.636C336.808 227.992 331.83 246.384 317.474 254.673C313.071 257.215 308.286 258.516 303.529 258.687C300.349 260.561 296.862 261.97 293.159 262.816C288.182 271.807 278.602 277.895 267.598 277.895H265.828C255.204 277.895 245.906 272.22 240.797 263.737H238.237C233.945 275.112 222.96 283.204 210.083 283.204C197.206 283.204 186.221 275.112 181.929 263.737H180.004C174.94 273.215 164.95 279.664 153.453 279.664C142.54 279.664 132.983 273.853 127.71 265.156L125.617 269.646C122.2 276.975 113.488 280.145 106.159 276.728L90.627 269.484C87.45 268.003 85.0549 265.527 83.6387 262.6C83.4324 262.547 83.2273 262.491 83.0225 262.435L34 277.01L56.3779 231.479C56.2094 230.055 56.1211 228.605 56.1211 227.135V225.121C49.7539 221.237 45.5029 214.227 45.5029 206.223C45.503 198.219 49.7539 191.208 56.1211 187.324V187.156C49.7188 182.87 45.503 175.573 45.5029 167.29V161.98C45.5031 153.582 49.8368 146.196 56.3896 141.937C57.1032 136.039 59.2165 130.573 62.3916 125.883C64.8887 117.818 70.6523 110.798 78.9062 106.949C89.376 102.067 101.178 103.537 109.971 109.775H111.447C117.125 99.2397 128.258 92.0792 141.065 92.0791C151.856 92.0791 161.458 97.1619 167.61 105.063V103.302C167.61 93.1941 175.805 85 185.912 85H204.169Z" fill="#2A91FF" fill-opacity="0.22"/>
</svg>
